<!-- Generated by IcoMoon.io -->
<svg version="1.1" xmlns="http://www.w3.org/2000/svg" width="32" height="32" viewBox="0 0 32 32">
<title>astronaut</title>
<path fill="#2196f3" d="M31.974 4.524c-0.064-0.191-0.227-0.332-0.427-0.362l-0.003-0-1.911-0.278-0.855-1.731c-0.179-0.365-0.777-0.365-0.956 0l-0.855 1.731-1.911 0.278c-0.26 0.039-0.457 0.26-0.457 0.528 0 0.15 0.062 0.285 0.161 0.382l1.383 1.348-0.326 1.903c-0.034 0.2 0.048 0.402 0.212 0.522 0.166 0.12 0.383 0.135 0.562 0.040l1.709-0.899 1.709 0.899c0.072 0.038 0.157 0.061 0.247 0.061 0.295 0 0.534-0.239 0.534-0.534 0-0.031-0.003-0.062-0.008-0.092l0 0.003-0.326-1.903 1.383-1.348c0.099-0.097 0.161-0.233 0.161-0.382 0-0.059-0.009-0.115-0.027-0.168l0.001 0.004zM29.511 5.851c-0.126 0.122-0.183 0.299-0.153 0.472l0.191 1.114-1-0.526c-0.072-0.039-0.158-0.062-0.249-0.062s-0.177 0.023-0.252 0.063l0.003-0.001-1 0.526 0.191-1.114c0.005-0.027 0.008-0.059 0.008-0.091 0-0.149-0.061-0.285-0.16-0.381l-0-0-0.811-0.79 1.119-0.162c0.174-0.025 0.324-0.134 0.402-0.292l0.5-1.013 0.5 1.013c0.078 0.158 0.228 0.267 0.402 0.292l1.119 0.162-0.809 0.79zM26.134 20.522h-1.067v1.067h1.067v-1.067zM26.134 22.656h-1.067v1.066h1.067v-1.066zM27.2 21.589h-1.067v1.067h1.067v-1.067zM25.067 21.589h-1.067v1.067h1.067v-1.067zM22.4 26.389h-1.067v1.067h1.067v-1.067zM22.4 28.523h-1.067v1.067h1.067v-1.067zM23.467 27.456h-1.067v1.067h1.067v-1.067zM21.334 27.456h-1.067v1.067h1.067v-1.067zM16 24.256h-1.066v1.067h1.066v-1.067zM16 26.389h-1.066v1.067h1.066v-1.067zM17.067 25.322h-1.067v1.067h1.067v-1.067zM14.934 25.322h-1.067v1.067h1.067v-1.067zM5.867 6.122h-1.066v1.066h1.066v-1.066zM5.867 8.256h-1.066v1.066h1.066v-1.066zM6.933 7.189h-1.067v1.067h1.066v-1.067zM4.8 7.189h-1.067v1.067h1.067v-1.067z"></path>
<path fill="#212121" d="M24.715 14.16c-0.28-0.376-0.698-0.636-1.179-0.703l-0.009-0.001c-0.076-0.012-0.164-0.018-0.254-0.018-0.411 0-0.789 0.139-1.090 0.373l0.004-0.003-1.253 0.96-1.898 1.417-1.358-0.541c2.421-1.086 4.113-3.508 4.113-6.32 0-3.823-3.122-6.934-6.961-6.934s-6.961 3.11-6.961 6.934c0 1.386 0.415 2.674 1.12 3.759l-2.768-0.024c-0.009 0-0.016 0.005-0.023 0.005-0.057 0.003-0.11 0.014-0.159 0.033l0.004-0.001c-0.013 0.005-0.026 0.007-0.038 0.013-0.006 0.003-0.013 0.003-0.019 0.006l-3.233 1.596c-0 0-0.001 0-0.001 0.001l-1.893 0.91c-0.024 0.011-0.045 0.023-0.065 0.036l0.001-0.001c-0.482 0.324-0.795 0.867-0.795 1.483 0 0.297 0.073 0.577 0.201 0.823l-0.005-0.010c0.22 0.424 0.592 0.742 1.043 0.885l0.013 0.003c0.161 0.053 0.345 0.083 0.537 0.083 0.308 0 0.598-0.078 0.851-0.216l-0.009 0.005 1.388-0.738 2.264-1.169 1.357-0.008-5.442 5.415c0 0.001-0.001 0.001-0.001 0.001l-1.339 1.333c-0.303 0.299-0.491 0.714-0.491 1.173 0 0.002 0 0.003 0 0.005v-0c0.002 0.919 0.748 1.664 1.667 1.664 0.001 0 0.002 0 0.002 0h-0c0.428 0 0.854-0.162 1.18-0.485l1.314-1.309 1.741-1.3 0.901 0.897-3.102 3.088c-0.303 0.299-0.491 0.714-0.491 1.173 0 0.001 0 0.003 0 0.004v-0c0 0.445 0.174 0.864 0.49 1.179 0.302 0.3 0.717 0.485 1.176 0.485 0.001 0 0.002 0 0.003 0h-0c0.427 0 0.855-0.162 1.18-0.485l4.488-4.472c0.007-0.006 0.016-0.009 0.022-0.016l5.166-5.658 3.471 0.494c0.025 0.004 0.050 0.006 0.075 0.006 0.064 0 0.127-0.016 0.187-0.038 0.017-0.006 0.032-0.015 0.049-0.023 0.019-0.010 0.039-0.015 0.058-0.027l3.213-2.133c0.012-0.008 0.018-0.021 0.029-0.030 0.013-0.010 0.029-0.014 0.041-0.026l1.271-1.191c0.348-0.326 0.564-0.787 0.564-1.3 0-0.4-0.132-0.769-0.355-1.066l0.003 0.005zM2.13 17.77c-0.098 0.054-0.215 0.086-0.34 0.086-0.078 0-0.153-0.013-0.224-0.036l0.005 0.001c-0.294-0.093-0.504-0.364-0.504-0.683 0-0.235 0.114-0.444 0.289-0.575l0.002-0.001 1.314-0.632 0.316 0.924 0.133 0.389-0.992 0.527zM5.627 15.942l-1.548 0.8-0.255-0.746-0.184-0.537 2.027-1.001-0.040 1.484zM20.727 9.322c0 0.918-0.219 1.785-0.599 2.56l-4.181-1.899c-0.044-0.575-0.342-1.072-0.782-1.384l-0.006-0.004 1.464-4.861c2.377 0.757 4.104 2.975 4.104 5.588zM8.938 9.322c0-3.235 2.644-5.867 5.894-5.867 0.253 0 0.5 0.022 0.745 0.053l-1.432 4.753c-0.019 0-0.037-0.006-0.057-0.006-0 0-0.001 0-0.001 0-1.032 0-1.869 0.835-1.872 1.867v0c0.003 1.032 0.84 1.867 1.872 1.867 0 0 0 0 0.001 0h-0c0.695 0 1.295-0.383 1.618-0.944l3.863 1.755c-1.075 1.447-2.795 2.39-4.737 2.39-3.25 0-5.894-2.632-5.894-5.867zM14.895 10.122c0 0.441-0.362 0.8-0.806 0.8-0 0-0.001 0-0.001 0-0.443 0-0.802-0.358-0.804-0.8v-0c0-0.441 0.361-0.8 0.806-0.8s0.806 0.359 0.806 0.8zM2.464 25.146c-0.11 0.109-0.261 0.176-0.428 0.176s-0.317-0.067-0.427-0.175l0 0c-0.109-0.108-0.176-0.257-0.176-0.422s0.067-0.314 0.176-0.422l0-0 0.962-0.959 0.852 0.848-0.959 0.954zM5.678 28.88c-0.11 0.109-0.261 0.176-0.428 0.176s-0.317-0.067-0.427-0.175l0 0c-0.109-0.108-0.176-0.257-0.176-0.422s0.067-0.314 0.176-0.422l0-0 0.963-0.959 0.852 0.848-0.96 0.955zM9.16 25.411l-0.001 0.001-1.765 1.76-0.852-0.848 1.765-1.757c0.040-0.040 0.065-0.088 0.090-0.136 0.007-0.014 0.020-0.026 0.026-0.040 0.016-0.041 0.019-0.085 0.026-0.128 0.003-0.025 0.014-0.048 0.014-0.073 0-0.035-0.013-0.070-0.020-0.105-0.006-0.032-0.006-0.064-0.019-0.096-0.025-0.053-0.055-0.098-0.092-0.138l0 0c-0.010-0.012-0.014-0.026-0.025-0.038h-0.001s0-0.001-0.001-0.002l-1.607-1.6c-0.017-0.017-0.039-0.024-0.058-0.038-0.025-0.021-0.054-0.040-0.084-0.056l-0.003-0.001c-0.026-0.012-0.058-0.023-0.090-0.031l-0.003-0.001c-0.030-0.009-0.065-0.017-0.101-0.020l-0.002-0c-0.007-0-0.015-0-0.023-0-0.026 0-0.051 0.002-0.075 0.005l0.003-0c-0.036 0.005-0.069 0.009-0.104 0.021s-0.064 0.027-0.094 0.045c-0.020 0.011-0.043 0.015-0.061 0.029l-1.774 1.324-0.901-0.897 2.399-2.386 4.36 4.289-0.928 0.919zM15.979 18.394c-0.016-0.002-0.030 0.004-0.046 0.003-0.008-0-0.017-0.001-0.027-0.001-0.031 0-0.062 0.003-0.092 0.008l0.003-0c-0.070 0.011-0.132 0.035-0.187 0.070l0.002-0.001c-0.030 0.018-0.057 0.037-0.083 0.061-0.013 0.011-0.028 0.016-0.040 0.029l-4.698 5.146-4.328-4.256 2.833-2.818c0.096-0.097 0.156-0.23 0.156-0.377 0-0.295-0.239-0.534-0.534-0.534-0.001 0-0.001 0-0.002 0h0l-2.219 0.013 0.028-1.607 3.104 0.027c1.264 1.297 3.027 2.101 4.978 2.101 0.001 0 0.002 0 0.003 0h-0c0.438 0 0.864-0.046 1.28-0.122 0.040 0.032 0.080 0.064 0.129 0.085l2.41 0.96 0.152 0.758 0.178 0.886-3.003-0.427zM20.020 18.572l-0.313-1.558 1.446-1.080 0.946 1.257-2.080 1.381zM23.773 15.741l-0.837 0.785-0.931-1.236 0.831-0.637c0.155-0.119 0.351-0.168 0.543-0.143 0.193 0.027 0.364 0.128 0.48 0.284 0.088 0.117 0.141 0.265 0.141 0.426 0 0.206-0.087 0.391-0.226 0.521l-0 0z"></path>
<path fill="#212121" d="M13.602 18.544l-2.143-2.134c-0.096-0.096-0.229-0.155-0.376-0.155s-0.28 0.059-0.376 0.155l-2.143 2.133c-0.097 0.097-0.156 0.23-0.156 0.378s0.060 0.281 0.156 0.378l-0-0 2.142 2.134c0.096 0.096 0.229 0.156 0.376 0.156s0.28-0.059 0.376-0.156v0l2.143-2.134c0.097-0.097 0.157-0.23 0.157-0.378s-0.060-0.281-0.157-0.378l-0-0zM11.083 20.303l-1.387-1.381 1.386-1.381 1.387 1.381-1.387 1.381zM17.164 5.071l-0.258 1.036c0.071 0.018 1.738 0.452 1.738 2.149h1.067c0-2.017-1.666-2.965-2.547-3.184zM19.711 9.322h-1.067v1.066h1.067v-1.066z"></path>
</svg>
