<!-- Generated by IcoMoon.io -->
<svg version="1.1" xmlns="http://www.w3.org/2000/svg" width="43" height="32" viewBox="0 0 43 32">
<title>envelope</title>
<path fill="#d9d9d9" d="M38.68-0.003h-34.679c-2.206 0-4.001 1.795-4.001 4.001v24.009c0 2.206 1.795 4.001 4.001 4.001h34.679c2.206 0 4.001-1.795 4.001-4.001v-24.009c0-2.206-1.795-4.001-4.001-4.001zM38.68 2.664c0.181 0 0.355 0.037 0.512 0.104l-17.852 15.472-17.852-15.472c0.151-0.065 0.327-0.104 0.512-0.104h34.679zM38.68 29.341h-34.679c-0.737 0-1.334-0.597-1.334-1.334v0-22.421l17.798 15.427c0.233 0.203 0.539 0.327 0.875 0.327s0.642-0.124 0.877-0.328l-0.002 0.001 17.798-15.427v22.421c0 0.737-0.597 1.334-1.334 1.334v0z"></path>
<path fill="#000" opacity="0.2" d="M38.68-0.003h-34.679c-2.206 0-4.001 1.795-4.001 4.001v24.009c0 2.206 1.795 4.001 4.001 4.001h34.679c2.206 0 4.001-1.795 4.001-4.001v-24.009c0-2.206-1.795-4.001-4.001-4.001zM38.68 2.664c0.181 0 0.355 0.037 0.512 0.104l-17.852 15.472-17.852-15.472c0.151-0.065 0.327-0.104 0.512-0.104h34.679zM38.68 29.341h-34.679c-0.737 0-1.334-0.597-1.334-1.334v0-22.421l17.798 15.427c0.233 0.203 0.539 0.327 0.875 0.327s0.642-0.124 0.877-0.328l-0.002 0.001 17.798-15.427v22.421c0 0.737-0.597 1.334-1.334 1.334v0z"></path>
</svg>
