<!-- Generated by IcoMoon.io -->
<svg version="1.1" xmlns="http://www.w3.org/2000/svg" width="32" height="32" viewBox="0 0 32 32">
<title>linkedin</title>
<path fill="#afb1b8" d="M31.992 32h0.008v-11.738c0-5.741-1.237-10.163-7.947-10.163-3.227 0-5.392 1.77-6.277 3.45h-0.093v-2.914h-6.365v21.363h6.627v-10.578c0-2.786 0.528-5.48 3.978-5.48 3.398 0 3.448 3.179 3.448 5.658v10.402h6.621zM0.528 10.635h6.635v21.365h-6.635v-21.365zM3.843 0c-2.123 0-3.843 1.721-3.843 3.843v0c0 2.12 1.722 3.878 3.843 3.878 2.12 0 3.842-1.757 3.842-3.878s-1.72-3.841-3.841-3.843h-0z"></path>
</svg>
