<!-- Generated by IcoMoon.io -->
<svg version="1.1" xmlns="http://www.w3.org/2000/svg" width="57" height="32" viewBox="0 0 57 32">
<title>Logo-4</title>
<path fill="#afb1b8" d="M12.879 11.255h-0.002c-1.279 0-2.316 0.921-2.316 2.058v0.002c0 1.137 1.037 2.058 2.316 2.058h0.002c1.279 0 2.316-0.922 2.316-2.058v-0.001c0-1.137-1.037-2.059-2.316-2.059z"></path>
<path fill="#afb1b8" d="M29.972 10.597c-0.004-1.579-0.711-3.092-1.967-4.209s-2.959-1.745-4.735-1.749c-1.777 0.003-3.481 0.631-4.737 1.748s-1.964 2.63-1.968 4.209v8.706s13.406-1.327 13.407-8.704v-0.002z"></path>
<path fill="#afb1b8" d="M5.867 22.16c0.003 1.099 0.496 2.151 1.37 2.928s2.058 1.214 3.294 1.218c1.236-0.003 2.42-0.441 3.294-1.218s1.366-1.829 1.37-2.927v-6.058s-9.327 0.924-9.327 6.057zM10.531 23.245c-0.242 0-0.477-0.063-0.678-0.183-0.195-0.115-0.35-0.281-0.447-0.48l-0.003-0.007c-0.059-0.121-0.093-0.264-0.093-0.415 0-0.075 0.009-0.148 0.025-0.219l-0.001 0.007c0.047-0.211 0.163-0.404 0.334-0.556s0.388-0.255 0.625-0.297c0.072-0.013 0.154-0.021 0.239-0.021 0.168 0 0.328 0.030 0.476 0.085l-0.009-0.003c0.223 0.082 0.414 0.221 0.548 0.4s0.206 0.388 0.206 0.603c0.001 0.143-0.030 0.285-0.092 0.417-0.066 0.139-0.155 0.256-0.263 0.352l-0.001 0.001c-0.113 0.101-0.248 0.181-0.397 0.236-0.139 0.053-0.3 0.083-0.467 0.083-0 0-0.001 0-0.001 0h0v-0.004z"></path>
<path fill="#afb1b8" d="M19.057 21.302v2.275h-0.469v-2.276h0.469zM19.964 22.274v0.366h-1.035v-0.365h1.035zM20.073 21.302v0.367h-1.144v-0.367h1.144zM22.213 22.386v0.108c0 0.173-0.023 0.328-0.070 0.466-0.045 0.136-0.113 0.253-0.2 0.353l0.001-0.001c-0.085 0.096-0.187 0.169-0.306 0.22-0.117 0.051-0.249 0.077-0.392 0.077s-0.274-0.026-0.393-0.077c-0.121-0.053-0.223-0.127-0.305-0.219l-0.001-0.001c-0.087-0.099-0.156-0.216-0.199-0.345l-0.002-0.007c-0.045-0.133-0.071-0.286-0.071-0.445 0-0.007 0-0.014 0-0.021v0.001-0.108c0-0.174 0.023-0.329 0.070-0.466s0.113-0.254 0.198-0.352c0.083-0.094 0.185-0.169 0.301-0.22l0.006-0.002c0.119-0.051 0.25-0.076 0.393-0.076 0.144 0 0.274 0.025 0.392 0.076 0.119 0.051 0.221 0.125 0.306 0.222 0.087 0.097 0.154 0.214 0.2 0.352 0.048 0.136 0.072 0.291 0.072 0.466zM21.74 22.495v-0.111c0-0.121-0.011-0.227-0.033-0.319-0.019-0.088-0.053-0.165-0.099-0.234l0.002 0.003c-0.040-0.059-0.092-0.107-0.154-0.139l-0.002-0.001c-0.059-0.031-0.129-0.049-0.203-0.049-0.003 0-0.006 0-0.008 0h0c-0.079 0-0.149 0.016-0.211 0.048-0.063 0.034-0.115 0.082-0.154 0.139l-0.001 0.002c-0.043 0.066-0.076 0.144-0.094 0.227l-0.001 0.005c-0.021 0.090-0.033 0.194-0.033 0.301 0 0.006 0 0.013 0 0.019v-0.001 0.111c0 0.119 0.011 0.226 0.033 0.318 0.021 0.092 0.054 0.17 0.097 0.233 0.040 0.059 0.092 0.107 0.154 0.141l0.002 0.001c0.061 0.033 0.132 0.049 0.211 0.049s0.149-0.016 0.211-0.048c0.064-0.034 0.116-0.083 0.154-0.141l0.001-0.002c0.043-0.067 0.076-0.145 0.095-0.228l0.001-0.005c0.021-0.093 0.033-0.199 0.033-0.318zM23.736 22.982c0-0.001 0-0.003 0-0.005 0-0.038-0.007-0.074-0.019-0.107l0.001 0.002c-0.014-0.037-0.037-0.067-0.066-0.090l-0-0c-0.039-0.032-0.084-0.060-0.132-0.082l-0.004-0.001c-0.061-0.028-0.136-0.057-0.213-0.081l-0.014-0.004c-0.12-0.038-0.217-0.076-0.312-0.119l0.018 0.007c-0.093-0.042-0.173-0.091-0.247-0.148l0.003 0.002c-0.067-0.053-0.122-0.118-0.164-0.192l-0.002-0.003c-0.038-0.072-0.060-0.157-0.060-0.247 0-0.004 0-0.008 0-0.012v0.001c-0-0.002-0-0.005-0-0.007 0-0.092 0.023-0.178 0.064-0.253l-0.001 0.003c0.042-0.078 0.1-0.145 0.175-0.2 0.075-0.057 0.164-0.1 0.266-0.13 0.103-0.030 0.217-0.045 0.339-0.045 0.168 0 0.314 0.030 0.439 0.091s0.222 0.143 0.291 0.248c0.070 0.106 0.105 0.226 0.105 0.361h-0.466c0-0.002 0-0.005 0-0.007 0-0.062-0.016-0.119-0.044-0.17l0.001 0.002c-0.029-0.052-0.071-0.093-0.123-0.119l-0.002-0.001c-0.057-0.028-0.123-0.045-0.194-0.045-0.005 0-0.011 0-0.016 0l0.001-0c-0.005-0-0.010-0-0.016-0-0.068 0-0.132 0.014-0.19 0.039l0.003-0.001c-0.050 0.021-0.092 0.055-0.122 0.098l-0.001 0.001c-0.025 0.038-0.041 0.084-0.041 0.134 0 0.001 0 0.002 0 0.003v-0c0 0.038 0.010 0.074 0.028 0.105 0.023 0.035 0.053 0.064 0.086 0.087l0.001 0.001c0.038 0.027 0.085 0.053 0.142 0.077s0.122 0.047 0.196 0.070c0.124 0.037 0.233 0.080 0.326 0.126 0.095 0.047 0.174 0.1 0.237 0.158s0.112 0.124 0.144 0.198 0.048 0.158 0.048 0.252c0 0.007 0 0.014 0 0.022 0 0.181-0.088 0.342-0.224 0.441l-0.002 0.001c-0.073 0.054-0.16 0.095-0.261 0.123-0.098 0.027-0.21 0.043-0.326 0.043-0.005 0-0.009-0-0.013-0h0.001c-0 0-0 0-0 0-0.118 0-0.233-0.016-0.341-0.046l0.009 0.002c-0.114-0.031-0.213-0.078-0.302-0.138l0.004 0.002c-0.088-0.060-0.159-0.138-0.21-0.228l-0.002-0.003c-0.053-0.094-0.080-0.205-0.080-0.333h0.47c0 0.071 0.011 0.131 0.033 0.18 0.021 0.048 0.052 0.088 0.091 0.118l0.001 0c0.041 0.030 0.089 0.053 0.141 0.065l0.003 0.001c0.056 0.013 0.117 0.020 0.185 0.020 0.005 0 0.011 0 0.016 0 0.066 0 0.129-0.013 0.187-0.036l-0.003 0.001c0.092-0.037 0.156-0.126 0.156-0.229 0-0.001 0-0.002-0-0.003v0zM25.54 21.302v2.275h-0.467v-2.276h0.467zM26.24 21.302v0.367h-1.856v-0.367h1.856zM28.034 23.212v0.366h-1.211v-0.366h1.211zM26.976 21.302v2.275h-0.469v-2.276h0.469zM27.876 22.229v0.356h-1.053v-0.356h1.053zM28.032 21.302v0.367h-1.209v-0.367h1.209zM28.308 21.302h0.848c0.174 0 0.324 0.027 0.449 0.078s0.222 0.129 0.29 0.231c0.068 0.102 0.101 0.228 0.101 0.377 0 0.122-0.020 0.227-0.062 0.315s-0.1 0.16-0.173 0.216l-0.001 0.001c-0.075 0.057-0.161 0.104-0.254 0.135l-0.006 0.002-0.148 0.078h-0.738l-0.003-0.366h0.549c0.005 0 0.010 0 0.015 0 0.069 0 0.134-0.016 0.192-0.045l-0.002 0.001c0.052-0.028 0.094-0.069 0.121-0.12l0.001-0.002c0.027-0.050 0.042-0.11 0.042-0.173 0-0.003-0-0.006-0-0.009v0c0-0.003 0-0.007 0-0.011 0-0.065-0.015-0.126-0.042-0.181l0.001 0.002c-0.027-0.053-0.070-0.095-0.122-0.121l-0.002-0.001c-0.057-0.027-0.123-0.043-0.193-0.043-0.005 0-0.011 0-0.016 0l0.001-0h-0.379v1.908h-0.469v-2.276zM29.58 23.577l-0.519-1.014 0.495-0.003 0.525 0.995v0.021h-0.501zM32.041 22.767h-0.58v-0.366h0.58c0.006 0 0.012 0 0.019 0 0.073 0 0.141-0.016 0.203-0.045l-0.003 0.001c0.054-0.028 0.096-0.071 0.123-0.124l0.001-0.002c0.024-0.054 0.039-0.118 0.039-0.184s-0.014-0.13-0.040-0.187l0.001 0.003c-0.027-0.059-0.069-0.107-0.122-0.14l-0.001-0.001c-0.058-0.034-0.127-0.054-0.202-0.054-0.006 0-0.012 0-0.018 0l0.001-0h-0.417v1.908h-0.469v-2.275h0.886c0.178 0 0.331 0.032 0.458 0.097 0.128 0.064 0.226 0.151 0.294 0.264s0.101 0.241 0.101 0.386c0 0.147-0.034 0.274-0.101 0.381-0.068 0.107-0.165 0.19-0.293 0.248s-0.28 0.087-0.459 0.087zM34.744 23.212v0.366h-1.211v-0.366h1.211zM33.686 21.302v2.275h-0.469v-2.276h0.469zM34.586 22.229v0.356h-1.053v-0.356h1.053zM34.742 21.302v0.367h-1.209v-0.367h1.209zM36.066 21.302v2.275h-0.467v-2.276h0.467zM36.766 21.302v0.367h-1.856v-0.367h1.856zM38.56 23.212v0.366h-1.211v-0.366h1.211zM37.502 21.302v2.275h-0.469v-2.276h0.469zM38.402 22.23v0.356h-1.053v-0.356h1.053zM38.558 21.303v0.367h-1.21v-0.367h1.21zM38.833 21.303h0.849c0.174 0 0.324 0.027 0.448 0.078 0.126 0.052 0.223 0.129 0.291 0.231s0.101 0.228 0.101 0.377c0 0.122-0.021 0.227-0.062 0.315s-0.1 0.16-0.172 0.216l-0.001 0.001c-0.075 0.057-0.161 0.104-0.255 0.135l-0.006 0.002-0.148 0.078h-0.738l-0.003-0.366h0.548c0.005 0 0.010 0 0.016 0 0.069 0 0.134-0.016 0.192-0.045l-0.002 0.001c0.052-0.028 0.094-0.069 0.121-0.12l0.001-0.002c0.027-0.050 0.043-0.11 0.043-0.174 0-0.003-0-0.005-0-0.008v0c0-0.003 0-0.006 0-0.010 0-0.065-0.015-0.127-0.042-0.182l0.001 0.002c-0.027-0.053-0.070-0.095-0.122-0.121l-0.002-0.001c-0.057-0.027-0.123-0.043-0.193-0.043-0.005 0-0.011 0-0.016 0l0.001-0h-0.38v1.908h-0.469v-2.276zM40.105 23.578l-0.519-1.014 0.496-0.003 0.524 0.995v0.021h-0.501zM42.068 22.983c0-0.001 0-0.003 0-0.005 0-0.038-0.007-0.074-0.019-0.107l0.001 0.002c-0.014-0.037-0.036-0.067-0.065-0.090l-0-0c-0.039-0.032-0.084-0.060-0.132-0.082l-0.004-0.001c-0.061-0.028-0.136-0.057-0.213-0.081l-0.014-0.004c-0.12-0.038-0.217-0.076-0.311-0.119l0.018 0.007c-0.093-0.042-0.173-0.091-0.247-0.148l0.003 0.002c-0.067-0.053-0.122-0.118-0.164-0.192l-0.002-0.003c-0.038-0.072-0.060-0.157-0.060-0.247 0-0.004 0-0.008 0-0.012v0.001c-0-0.002-0-0.005-0-0.007 0-0.092 0.023-0.178 0.064-0.253l-0.001 0.003c0.042-0.078 0.1-0.145 0.175-0.2 0.075-0.057 0.163-0.1 0.266-0.13s0.216-0.045 0.339-0.045c0.168 0 0.315 0.030 0.439 0.091 0.125 0.060 0.222 0.143 0.291 0.248 0.070 0.106 0.105 0.226 0.105 0.361h-0.466c0-0.002 0-0.005 0-0.007 0-0.062-0.016-0.119-0.044-0.17l0.001 0.002c-0.029-0.052-0.071-0.093-0.123-0.119l-0.002-0.001c-0.057-0.028-0.123-0.045-0.194-0.045-0.005 0-0.011 0-0.016 0l0.001-0c-0.005-0-0.010-0-0.016-0-0.068 0-0.132 0.014-0.19 0.039l0.003-0.001c-0.050 0.021-0.092 0.055-0.122 0.098l-0.001 0.001c-0.025 0.038-0.041 0.084-0.041 0.134 0 0.001 0 0.002 0 0.003v-0c0 0.038 0.010 0.074 0.028 0.105 0.023 0.035 0.053 0.064 0.086 0.087l0.001 0.001c0.038 0.027 0.086 0.053 0.142 0.077s0.121 0.047 0.195 0.070c0.124 0.037 0.233 0.080 0.326 0.126 0.095 0.047 0.174 0.1 0.237 0.158s0.112 0.124 0.144 0.198 0.048 0.158 0.048 0.252c0 0.099-0.019 0.187-0.058 0.266s-0.094 0.144-0.167 0.198c-0.073 0.054-0.16 0.095-0.261 0.123s-0.213 0.043-0.339 0.043c-0.113 0-0.224-0.015-0.333-0.044-0.114-0.031-0.213-0.078-0.302-0.138l0.004 0.002c-0.088-0.060-0.159-0.138-0.211-0.228l-0.002-0.003c-0.053-0.094-0.080-0.205-0.080-0.333h0.47c0 0.071 0.011 0.131 0.033 0.18 0.021 0.048 0.052 0.088 0.091 0.118l0.001 0c0.041 0.030 0.089 0.053 0.141 0.065l0.003 0.001c0.057 0.013 0.117 0.020 0.185 0.020 0.005 0 0.011 0 0.016 0 0.066 0 0.129-0.013 0.187-0.036l-0.003 0.001c0.092-0.037 0.156-0.126 0.156-0.229 0-0.001 0-0.002-0-0.003v0z"></path>
</svg>
