<!-- Generated by IcoMoon.io -->
<svg version="1.1" xmlns="http://www.w3.org/2000/svg" width="57" height="32" viewBox="0 0 57 32">
<title>Logo-2</title>
<path fill="#afb1b8" d="M26.729 3.165h-0.073c-0.112-0.007-0.224-0.010-0.336-0.012h-0.243c-0.212 0-0.428 0.005-0.642 0.016-0.007-0.001-0.016-0.001-0.024-0.001s-0.017 0-0.025 0.001l0.001-0c-2.059 0.12-3.971 0.635-5.699 1.47l0.090-0.039-0.23 0.111v11.81l0.54-0.183c0.474-0.163 0.978-0.309 1.5-0.445 1.29-0.345 2.775-0.553 4.305-0.573l0.012-0v1.552c-0.193 0.001-0.38 0.006-0.568 0.016h-0.045c-1.212 0.068-2.348 0.25-3.442 0.537l0.12-0.027c-1.503 0.382-2.82 0.91-4.044 1.586l0.087-0.044v-15.146c1.195-0.711 2.578-1.29 4.042-1.665l0.11-0.024c1.173-0.315 2.52-0.499 3.909-0.505h0.231c0.273 0.007 0.539 0.019 0.788 0.038 0.658 0.046 1.31 0.15 1.949 0.311v1.527c-0.544-0.133-1.189-0.234-1.849-0.283l-0.039-0.002-0.039-0.003c-0.132-0.011-0.263-0.022-0.386-0.022zM29.416 4.725c0.339 0.026 0.69 0.038 1.044 0.038 1.464-0.006 2.881-0.198 4.231-0.554l-0.117 0.026c1.503-0.384 2.819-0.912 4.043-1.587l-0.087 0.044v14.875c-1.196 0.71-2.578 1.289-4.043 1.665l-0.11 0.024c-1.173 0.314-2.52 0.498-3.91 0.503h-0.004c-0.029 0-0.062 0-0.096 0-1.020 0-2.010-0.128-2.955-0.368l0.083 0.018v-14.973c0.229 0.053 0.466 0.102 0.706 0.142 0.394 0.067 0.81 0.115 1.214 0.145zM36.987 4.841l-0.54 0.181c-0.496 0.167-0.997 0.316-1.5 0.449-1.344 0.36-2.888 0.569-4.48 0.575h-0.004c-0.352 0-0.676-0.010-0.989-0.030l-0.43-0.028v12.148l0.37 0.032c0.342 0.030 0.696 0.045 1.052 0.045 1.257-0.006 2.473-0.172 3.631-0.48l-0.1 0.023c1.059-0.269 1.977-0.608 2.848-1.031l-0.088 0.039 0.23-0.111v-11.813z"></path>
<path fill="#afb1b8" d="M19.061 24.113c-0.145-0.15-0.348-0.243-0.572-0.243-0.010 0-0.020 0-0.030 0.001l0.001-0c-0.004-0-0.008-0-0.012-0-0.121 0-0.236 0.024-0.341 0.067l0.006-0.002c-0.205 0.082-0.364 0.243-0.442 0.444l-0.002 0.005c-0.043 0.107-0.063 0.22-0.062 0.335v2.024c-0.005 0.142 0.022 0.284 0.079 0.415 0.048 0.104 0.117 0.196 0.203 0.271 0.081 0.068 0.175 0.117 0.277 0.144 0.099 0.027 0.201 0.042 0.302 0.042 0.113 0.001 0.224-0.023 0.326-0.070 0.304-0.135 0.512-0.434 0.512-0.781v-0.226h-0.53v0.18c0 0.004 0 0.008 0 0.012 0 0.060-0.011 0.118-0.032 0.171l0.001-0.003c-0.018 0.045-0.044 0.083-0.077 0.114l-0 0c-0.061 0.047-0.137 0.076-0.221 0.077h-0c-0.009 0.001-0.020 0.002-0.031 0.002-0.089 0-0.168-0.043-0.217-0.11l-0.001-0.001c-0.044-0.071-0.071-0.158-0.071-0.251 0-0.007 0-0.014 0-0.021l-0 0.001v-1.887c-0.003-0.105 0.019-0.208 0.065-0.302 0.049-0.075 0.132-0.124 0.227-0.124 0.011 0 0.022 0.001 0.033 0.002l-0.001-0c0.003-0 0.006-0 0.010-0 0.092 0 0.174 0.045 0.226 0.114l0.001 0.001c0.055 0.071 0.088 0.162 0.088 0.26 0 0.004-0 0.008-0 0.012v-0.001 0.175h0.524v-0.206c0-0.003 0-0.006 0-0.009 0-0.124-0.024-0.243-0.067-0.352l0.002 0.006c-0.041-0.111-0.102-0.205-0.177-0.285l0 0zM22.203 24.091c-0.161-0.137-0.371-0.221-0.601-0.223h-0c-0.108 0-0.215 0.020-0.316 0.057-0.218 0.078-0.391 0.239-0.483 0.443l-0.002 0.005c-0.053 0.123-0.080 0.257-0.077 0.392v1.94c-0.004 0.137 0.023 0.272 0.077 0.397 0.048 0.105 0.117 0.197 0.205 0.271 0.081 0.075 0.176 0.133 0.279 0.171 0.101 0.037 0.208 0.057 0.316 0.057 0.231-0.001 0.442-0.087 0.603-0.229l-0.001 0.001c0.084-0.076 0.152-0.168 0.199-0.271 0.054-0.125 0.081-0.261 0.077-0.397v-1.941c0-0.005 0-0.011 0-0.017 0-0.135-0.029-0.264-0.080-0.381l0.002 0.006c-0.049-0.111-0.117-0.205-0.199-0.283l-0-0zM21.956 26.707c0.001 0.009 0.001 0.019 0.001 0.030 0 0.099-0.041 0.188-0.106 0.251l-0 0c-0.067 0.056-0.154 0.091-0.249 0.091s-0.182-0.034-0.25-0.091l0.001 0c-0.066-0.063-0.106-0.152-0.106-0.25 0-0.011 0-0.022 0.002-0.032l-0 0.001v-1.941c-0.001-0.009-0.001-0.019-0.001-0.030 0-0.098 0.041-0.187 0.106-0.25l0-0c0.067-0.056 0.154-0.091 0.249-0.091s0.182 0.034 0.25 0.091l-0.001-0c0.066 0.063 0.106 0.152 0.106 0.25 0 0.011-0 0.021-0.001 0.032l0-0.001v1.941zM26.33 27.574v-3.675h-0.508l-0.668 1.945h-0.009l-0.674-1.945h-0.503v3.674h0.525v-2.235h0.010l0.514 1.58h0.262l0.518-1.58h0.010v2.235h0.525zM29.313 24.157c-0.081-0.091-0.183-0.16-0.297-0.201-0.108-0.036-0.232-0.057-0.361-0.057-0.007 0-0.014 0-0.021 0h-0.779v3.675h0.524v-1.435h0.269c0.164 0.007 0.326-0.027 0.473-0.1 0.12-0.068 0.217-0.163 0.286-0.278l0.002-0.003c0.060-0.098 0.101-0.206 0.12-0.32 0.018-0.116 0.028-0.249 0.028-0.385 0-0.012-0-0.023-0-0.035l0 0.002c0.005-0.176-0.012-0.353-0.051-0.525-0.037-0.132-0.104-0.246-0.193-0.338l0 0zM29.043 25.277c-0.002 0.070-0.020 0.136-0.050 0.194l0.001-0.003c-0.030 0.056-0.077 0.101-0.133 0.128l-0.002 0.001c-0.065 0.030-0.14 0.047-0.22 0.047-0.010 0-0.019-0-0.028-0.001l0.001 0h-0.239v-1.249h0.27c0.008-0 0.016-0.001 0.025-0.001 0.077 0 0.149 0.017 0.214 0.048l-0.003-0.001c0.054 0.031 0.096 0.078 0.122 0.134l0.001 0.002c0.029 0.065 0.044 0.134 0.046 0.205v0.244c0 0.085 0.005 0.174 0 0.252h-0.005zM31.793 23.899h-0.429l-0.81 3.675h0.524l0.154-0.789h0.714l0.154 0.789h0.523l-0.829-3.675zM31.309 26.284l0.258-1.332h0.010l0.256 1.332h-0.523zM35.175 26.113h-0.010l-0.79-2.213h-0.504v3.675h0.523v-2.21h0.011l0.8 2.209h0.493v-3.674h-0.523v2.213zM38.374 23.899l-0.421 1.461h-0.011l-0.421-1.461h-0.554l0.719 2.122v1.553h0.524v-1.553l0.719-2.121h-0.555zM17.601 28.611h0.252v0.708h0.171v-0.708h0.251v-0.145h-0.674v0.146zM19.722 28.466l-0.331 0.853h0.182l0.070-0.194h0.34l0.073 0.194h0.187l-0.339-0.853h-0.182zM19.695 28.982l0.116-0.316 0.116 0.316h-0.232zM21.819 29.004h0.197v0.11c-0.055 0.044-0.126 0.072-0.203 0.072h-0c-0.004 0-0.008 0-0.012 0-0.068 0-0.129-0.032-0.169-0.081l-0-0c-0.040-0.057-0.063-0.127-0.063-0.203 0-0.007 0-0.013 0.001-0.020l-0 0.001c0-0.19 0.082-0.285 0.245-0.285 0.006-0.001 0.012-0.001 0.018-0.001 0.084 0 0.155 0.058 0.174 0.136l0 0.001 0.169-0.033c-0.036-0.166-0.156-0.251-0.362-0.251-0.003-0-0.007-0-0.011-0-0.11 0-0.211 0.042-0.287 0.11l0-0c-0.076 0.075-0.124 0.18-0.124 0.296 0 0.011 0 0.022 0.001 0.033l-0-0.001c-0 0.006-0 0.013-0 0.020 0 0.115 0.041 0.22 0.11 0.301l-0.001-0.001c0.075 0.078 0.181 0.126 0.298 0.126 0.009 0 0.018-0 0.027-0.001l-0.001 0c0.004 0 0.009 0 0.014 0 0.134 0 0.257-0.052 0.348-0.137l-0 0v-0.336h-0.37v0.144zM23.96 28.466h-0.173v0.853h0.597v-0.145h-0.425v-0.708zM25.771 28.466h-0.173v0.853h0.173v-0.853zM27.541 29.035l-0.349-0.57h-0.167v0.853h0.16v-0.557l0.343 0.557h0.172v-0.853h-0.158v0.57zM29.141 28.943h0.425v-0.145h-0.425v-0.187h0.457v-0.146h-0.63v0.853h0.648v-0.145h-0.475v-0.231zM33.022 28.802h-0.336v-0.336h-0.171v0.853h0.171v-0.373h0.336v0.373h0.172v-0.853h-0.172v0.337zM34.631 28.943h0.427v-0.145h-0.427v-0.187h0.459v-0.146h-0.629v0.853h0.646v-0.145h-0.475v-0.231zM36.814 28.944c0.149-0.023 0.224-0.102 0.224-0.237 0.001-0.007 0.001-0.015 0.001-0.024 0-0.068-0.033-0.128-0.085-0.166l-0.001-0c-0.063-0.032-0.138-0.051-0.216-0.051-0.012 0-0.023 0-0.035 0.001l0.002-0h-0.362v0.853h0.172v-0.357h0.034c0.004-0 0.009-0 0.014-0 0.034 0 0.066 0.007 0.094 0.020l-0.001-0.001c0.025 0.015 0.046 0.037 0.061 0.062l0.186 0.271h0.205l-0.104-0.166c-0.047-0.083-0.111-0.152-0.187-0.203l-0.002-0.001zM36.641 28.825h-0.126v-0.214h0.135c0.011-0.001 0.023-0.001 0.036-0.001 0.049 0 0.097 0.008 0.141 0.023l-0.003-0.001c0.023 0.021 0.037 0.050 0.037 0.083 0 0.037-0.018 0.069-0.045 0.090l-0 0c-0.043 0.014-0.092 0.021-0.142 0.021-0.011 0-0.022-0-0.033-0.001l0.002 0zM38.461 28.943h0.425v-0.145h-0.425v-0.187h0.459v-0.146h-0.632v0.853h0.648v-0.145h-0.475v-0.231z"></path>
</svg>
